<?xml version="1.0" encoding="utf-8"?>
<!-- Generator: Adobe Illustrator 26.2.1, SVG Export Plug-In . SVG Version: 6.00 Build 0)  -->
<svg version="1.0" id="Layer_1" xmlns="http://www.w3.org/2000/svg" xmlns:xlink="http://www.w3.org/1999/xlink" x="0px" y="0px"
	 viewBox="0 0 511 519.4" style="enable-background:new 0 0 511 519.4;" xml:space="preserve">
<style type="text/css">
	.st0{fill:#FFFFFF;}
</style>
<path d="M255.4,34.7c124.2,0,225,100.7,225,224.9c0,124.2-100.7,225-224.9,225c-124.2,0-225-100.7-225-224.9
	C30.5,135.5,131.2,34.7,255.4,34.7z M243.6,478.6c-11.9-1.7-23.3-4.8-34.2-9.9c-44-20.6-69-66.3-62.4-114.8
	c3.9-28.1,17.1-51.3,39-69.3c20.2-16.7,43.6-24.8,69.9-24.9c10.4,0,20.7-1.5,30.7-4.5c56.3-17,89.1-73.9,75.5-131.1
	c-11.4-47.5-54.3-82.4-103.1-83.6c-17.8-0.4-35.3,1.5-52.6,5.5c-37.3,8.7-70.4,25.7-98.5,51.7c-42.3,39.1-66,87.4-70.8,144.8
	c-2.2,26.1,0.5,51.8,7.6,77c9.3,32.9,25.6,62,48.6,87.3c21.7,23.9,47.5,42.2,77.3,54.8c19.7,8.4,40.2,13.6,61.5,15.9
	c3.9,0.4,7.7,0.6,11.6,1L243.6,478.6z M226.7,369.3c0,15.9,13,28.8,28.8,28.8c15.9,0,28.8-13,28.8-28.9c0-15.9-12.9-28.8-28.8-28.8
	C239.5,340.4,226.6,353.3,226.7,369.3L226.7,369.3z"/>
<path class="st0" d="M243.5,478.6c-3.9-0.3-7.7-0.5-11.6-1c-21.3-2.3-41.8-7.5-61.5-15.9c-29.8-12.6-55.5-30.9-77.3-54.8
	c-23-25.3-39.2-54.5-48.6-87.3c-7.2-25.2-9.8-50.9-7.6-77c4.8-57.5,28.6-105.8,70.8-144.8c28.1-26,61.2-43.1,98.5-51.7
	c17.3-4,34.8-5.9,52.6-5.5c48.7,1.2,91.7,36.1,103.1,83.6c13.7,57.2-19.1,114.2-75.4,131.1c-10,3-20.2,4.4-30.7,4.5
	c-26.2,0.1-49.6,8.2-69.9,24.9c-21.9,18.1-35.1,41.2-39,69.3c-6.6,48.5,18.3,94.3,62.4,114.8c10.8,5.1,22.3,8.2,34.2,9.9
	L243.5,478.6z M284.3,150.2c0-15.9-12.9-28.9-28.7-29c-15.9,0-28.9,12.9-29,28.7c0,15.9,12.9,28.9,28.7,29
	C271.3,178.9,284.2,166,284.3,150.2z"/>
<path class="st0" d="M226.6,369.3c0-15.9,12.9-28.8,28.8-28.8c15.9,0,28.8,12.9,28.8,28.8c0,15.9-12.9,28.8-28.8,28.9
	C239.5,398.2,226.6,385.2,226.6,369.3L226.6,369.3z"/>
<path d="M284.3,150.2c0,15.9-13,28.8-29,28.7c-15.9,0-28.8-13-28.7-29c0-15.9,13-28.8,29-28.7C271.5,121.2,284.4,134.2,284.3,150.2z
	"/>
</svg>